<svg xmlns="http://www.w3.org/2000/svg" viewBox="0 0 256 256">
  <circle cx="128" cy="128" r="128" fill="#1a2b4a"/>
  <path d="M40 180 Q70 170 100 180 T160 180 T220 180 L220 195 Q190 185 160 195 T100 195 T40 195 Z" fill="#dc143c"/>
  <path d="M40 200 Q70 190 100 200 T160 200 T220 200 L220 215 Q190 205 160 215 T100 215 T40 215 Z" fill="#ffffff"/>
  <path d="M40 220 Q70 210 100 220 T160 220 T220 220 L220 235 Q190 225 160 235 T100 235 T40 235 Z" fill="#dc143c"/>
  <text x="128" y="85" font-family="Arial, sans-serif" font-size="28" font-weight="bold" fill="#ffffff" text-anchor="middle">The</text>
  <text x="128" y="125" font-family="Arial, sans-serif" font-size="48" font-weight="bold" fill="#ffffff" text-anchor="middle">FLOW</text>
</svg>